<?xml version="1.0" encoding="UTF-8" standalone="no"?>
<svg
   xmlns:dc="http://purl.org/dc/elements/1.1/"
   xmlns:cc="http://creativecommons.org/ns#"
   xmlns:rdf="http://www.w3.org/1999/02/22-rdf-syntax-ns#"
   xmlns:svg="http://www.w3.org/2000/svg"
   xmlns="http://www.w3.org/2000/svg"
   xmlns:sodipodi="http://sodipodi.sourceforge.net/DTD/sodipodi-0.dtd"
   xmlns:inkscape="http://www.inkscape.org/namespaces/inkscape"
   version="1.1"
   id="Layer_1"
   x="0px"
   y="0px"
   width="1000"
   height="266.54999"
   viewBox="0 0 1000 266.54999"
   enable-background="new 0 0 612 792"
   xml:space="preserve"
   inkscape:version="0.91 r13725"
   sodipodi:docname="L'Oréal_Paris.svg"><metadata
   id="metadata21"><rdf:RDF><cc:Work
       rdf:about=""><dc:format>image/svg+xml</dc:format><dc:type
         rdf:resource="http://purl.org/dc/dcmitype/StillImage" /><dc:title></dc:title></cc:Work></rdf:RDF></metadata><defs
   id="defs19" /><sodipodi:namedview
   pagecolor="#ffffff"
   bordercolor="#666666"
   borderopacity="1"
   objecttolerance="10"
   gridtolerance="10"
   guidetolerance="10"
   inkscape:pageopacity="0"
   inkscape:pageshadow="2"
   inkscape:window-width="1366"
   inkscape:window-height="705"
   id="namedview17"
   showgrid="false"
   inkscape:zoom="0.25783972"
   inkscape:cx="-34.452261"
   inkscape:cy="-29.973142"
   inkscape:window-x="-8"
   inkscape:window-y="-8"
   inkscape:window-maximized="1"
   inkscape:current-layer="Layer_1" />
<path
   d="m 365.05518,207.11787 -36.31553,0 0,57.65922 10.90736,0 0,-24.33383 25.40817,0 c 17.53856,0 23.9475,-9.07624 23.9475,-17.1046 0,-9.31439 -8.99156,-16.22079 -23.9475,-16.22079 z m -3.70988,26.65713 -21.69829,0 0,-19.99947 22.14813,0 c 8.99685,0 15.96676,2.33389 15.96676,9.64251 0,7.78492 -6.6365,10.35696 -16.4166,10.35696 z"
   id="path11"
   style="fill:#000000"
   inkscape:connector-curvature="0" /><path
   d="m 553.85674,264.35901 -12.30981,0 -16.46424,-23.39181 c -0.2064,-0.30167 -0.6086,-0.45514 -1.02141,-0.52924 l 0.53982,0 c -0.17464,-0.0318 -0.35458,-0.0423 -0.53982,0 l -22.10578,0 0,24.33384 -10.90736,0 0,-57.65923 36.31552,0 c 14.95065,0 23.9475,6.9064 23.9475,16.2155 0,6.6365 -4.40316,13.97688 -15.83446,16.32135 l 18.38004,24.70959 z M 501.9555,233.775 l 21.70357,0 c 9.78011,0 16.41661,-2.57204 16.41661,-10.35696 0,-7.30862 -6.96991,-9.64251 -15.96677,-9.64251 l -22.15341,0 0,19.99947 z"
   id="path13"
   style="fill:#000000"
   inkscape:connector-curvature="0" /><path
   d="m 425.50872,207.11787 -33.61117,57.65922 12.4527,0 9.33555,-16.78706 35.8498,0 8.83809,16.78706 13.19891,0 -32.36749,-57.65922 -13.69639,0 z m -8.09187,33.96575 14.31557,-25.37641 0.24874,0 13.19362,25.37641 -27.75793,0 z"
   id="path15"
   style="fill:#000000"
   inkscape:connector-curvature="0" /><path
   d="m 658.506,233.7115 -22.22752,-3.78397 c -4.55134,-0.79385 -9.21383,-2.40798 -9.21383,-7.30862 0,-8.74282 11.16138,-10.10823 17.77672,-10.10823 8.78516,0 18.76108,2.81019 19.29559,11.72237 l 9.87008,0 c -0.43396,-6.34543 -3.1489,-18.39062 -30.35644,-18.39062 -18.86162,0 -26.78415,8.82749 -26.78415,17.81905 0,10.04472 11.4948,12.69085 16.59125,13.56937 l 15.94031,2.7414 c 12.78611,2.24392 16.58596,4.17559 16.58596,10.1929 0,8.27181 -12.79141,9.7166 -20.3858,9.7166 -9.97593,0 -21.46544,-3.04834 -21.46544,-13.48999 l -9.87007,0 c 0,5.38753 1.3019,10.20349 7.91723,14.61724 3.46643,2.32331 9.10799,5.541 23.52412,5.541 13.33651,0 30.46757,-3.77338 30.46757,-17.42743 0.005,-9.14504 -7.58911,-13.64346 -17.66558,-15.41107 z"
   id="path17"
   style="fill:#000000"
   inkscape:connector-curvature="0" /><rect
   x="579.41315"
   y="206.79501"
   width="10.346378"
   height="10.346378"
   id="rect19"
   style="fill:#000000" /><rect
   x="579.47662"
   y="223.24341"
   width="10.35167"
   height="41.210873"
   id="rect21"
   style="fill:#000000" /><polygon
   points="210.729,318.451 210.729,315.435 195.557,315.435 195.557,306.657 215.758,306.657 215.758,303.686 191.373,303.686 191.373,330.961 215.758,330.961 215.758,327.984 195.557,327.984 195.557,318.451 "
   id="polygon25"
   style="fill:#000000"
   transform="matrix(5.2922654,0,0,5.2922654,-468.76769,-1582.7633)" /><polygon
   points="211.107,299.282 204.046,299.282 200.743,302.99 "
   id="polygon27"
   style="fill:#000000"
   transform="matrix(5.2922654,0,0,5.2922654,-468.76769,-1582.7633)" /><polygon
   points="277.531,327.984 256.694,327.984 256.694,303.686 252.881,303.686 252.881,330.961 277.531,330.961 "
   id="polygon29"
   style="fill:#000000"
   transform="matrix(5.2922654,0,0,5.2922654,-468.76769,-1582.7633)" /><path
   d="m 756.70398,24.423571 -73.37726,144.346529 24.79956,0 18.78224,-37.3581 88.00509,0 18.94101,37.3581 24.54553,0 -73.44076,-144.346529 -28.25541,0 z m -20.51282,88.920649 34.57437,-68.958223 35.00305,68.958223 -69.57742,0 z"
   id="path31"
   style="fill:#000000"
   inkscape:connector-curvature="0" /><path
   d="m 474.01234,108.4277 c 33.05548,-8.827498 36.27847,-33.452408 36.1197,-42.232278 -1.9793,-25.789209 -19.34322,-41.771851 -50.57818,-41.771851 l -90.95287,0 0,144.346529 20.74039,0 0,-60.53822 59.20457,0 43.56064,60.53822 26.1332,0 c 0.0105,0 -31.32491,-40.74514 -44.22745,-60.3424 z m -17.28454,-17.268668 -67.38113,0 0,-49.641444 69.74148,0 c 16.04615,0 25.08004,7.493849 28.33479,17.009342 2.14866,6.535952 0.76738,15.104122 -2.77844,20.930912 -5.83208,9.65838 -16.9035,11.70119 -27.9167,11.70119 z"
   id="path33"
   style="fill:#000000"
   inkscape:connector-curvature="0" /><path
   d="m 243.97873,-2.3279297e-4 c -58.52716,0 -98.42026,41.26379179297 -98.42026,91.23336479297 0,52.594528 44.07399,89.703898 98.42026,89.703898 54.34098,0 98.3885,-36.58014 98.3885,-89.703898 0,-49.969573 -40.39056,-91.23336479297 -98.3885,-91.23336479297 z M 243.28544,163.03329 c -40.5017,0 -73.86944,-32.54743 -73.86944,-71.757818 0,-39.168061 31.80122,-73.271419 75.43066,-73.271419 42.57098,0 73.84827,34.098067 73.84827,73.271419 0.005,39.210388 -34.92366,71.757818 -75.40949,71.757818 z"
   id="path35"
   style="fill:#000000"
   inkscape:connector-curvature="0" /><polygon
   points="109.039,313.334 114.172,303.686 110.041,303.686 106.212,313.334 "
   id="polygon37"
   style="fill:#000000"
   transform="matrix(5.2922654,0,0,5.2922654,-468.76769,-1582.7633)" /><polygon
   points="113.226,327.984 92.389,327.984 92.389,303.686 88.576,303.686 88.576,330.961 113.226,330.961 "
   id="polygon39"
   style="fill:#000000"
   transform="matrix(5.2922654,0,0,5.2922654,-468.76769,-1582.7633)" />
</svg>